HIERARCHY
ROOT simHips
{
  OFFSET 0.66249 78.041 -3.49972
  CHANNELS 6 Xposition Yposition Zposition Zrotation Xrotation Yrotation
  JOINT simSpine
  {
    OFFSET -0.000355721 21.3001 -0.016921
    CHANNELS 3 Zrotation Xrotation Yrotation
    JOINT simLeftArm
    {
      OFFSET 13.5181 21.3012 0
      CHANNELS 3 Zrotation Xrotation Yrotation
      JOINT simLeftForeArm
      {
        OFFSET 24.5783 0 0
        CHANNELS 3 Zrotation Xrotation Yrotation
        JOINT simLeftHand
        {
          OFFSET 24.5783 0 0
          CHANNELS 3 Zrotation Xrotation Yrotation
          End Site
          {
            OFFSET 7.32568 1.52588e-05 0.0169305
          }
        }
      }
    }
    JOINT simHead
    {
      OFFSET 0 27.4458 -0.00489235
      CHANNELS 3 Zrotation Xrotation Yrotation
      End Site
      {
        OFFSET 0 0 0
      }
    }
    JOINT simRightArm
    {
      OFFSET -13.5174 21.3012 0
      CHANNELS 3 Zrotation Xrotation Yrotation
      JOINT simRightForeArm
      {
        OFFSET -24.5783 0 0
        CHANNELS 3 Zrotation Xrotation Yrotation
        JOINT simRightHand
        {
          OFFSET -24.5783 0 0
          CHANNELS 3 Zrotation Xrotation Yrotation
          End Site
          {
            OFFSET -7.32568 1.52588e-05 0.0169305
          }
        }
      }
    }
  }
  JOINT simRightUpLeg
  {
    OFFSET -8.44614 -9.41038 0.835684
    CHANNELS 3 Zrotation Xrotation Yrotation
    JOINT simRightLeg
    {
      OFFSET 0 -40.9639 0
      CHANNELS 3 Zrotation Xrotation Yrotation
      JOINT simRightFoot
      {
        OFFSET 0 -40.9639 0
        CHANNELS 3 Zrotation Xrotation Yrotation
        End Site
        {
          OFFSET 0.50614 -9.67405 14.6709
        }
      }
    }
  }
  JOINT simLeftUpLeg
  {
    OFFSET 8.44614 -9.41038 0.835684
    CHANNELS 3 Zrotation Xrotation Yrotation
    JOINT simLeftLeg
    {
      OFFSET 0 -40.9639 0
      CHANNELS 3 Zrotation Xrotation Yrotation
      JOINT simLeftFoot
      {
        OFFSET 0 -40.9639 0
        CHANNELS 3 Zrotation Xrotation Yrotation
        End Site
        {
          OFFSET -0.50614 -9.67405 14.6709
        }
      }
    }
  }
}
MOTION
Frames:	28
Frame Time:	0.0333333
2.70833 80.0145 -111.974 3.94299 18.3542 5.66752 -10.639 7.03958 14.3781 -12.7767 -32.6206 52.0444 -0.000157228 -5.38074e-06 -68.0861 -10.8502 31.4533 28.2267 -0.492421 -2.96682 -10.677 -29.0417 -12.851 14.2771 -0.000239766 -7.92593e-07 83.1549 -14.3596 -20.1442 3.17483 6.95552 4.51416 -10.6529 0.88945 33.8799 -9.18961 14.5263 -46.3592 -7.93211 17.1178 -63.3654 31.5115 -58.1191 78.6879 57.1793 2.86898 -22.6286 0.231115 
2.94578 82.7598 -110.805 3.26407 18.2084 5.67278 -10.9077 6.89828 13.2526 -24.4644 -31.9626 42.8353 -8.83738e-05 -6.37056e-06 -63.7769 -8.60328 30.7706 25.094 0.114039 -1.87506 -10.5798 -15.011 -10.7263 14.336 -0.000239724 2.59512e-07 92.2365 -11.4908 -25.8983 7.79719 6.19061 4.40176 -10.0724 0.324428 33.5563 -8.85361 20.3741 -33.5104 -3.66104 12.583 -58.7026 24.646 -38.7905 75.2638 32.588 2.46471 -23.3915 0.101784 
3.35471 85.11 -109.465 2.73206 17.3966 6.71739 -10.4045 8.24664 11.2787 -38.9447 -28.6655 26.0179 7.94995e-07 -8.51802e-06 -53.785 -8.99149 35.0329 27.9133 0.297307 -1.7146 -10.2888 -1.17339 -4.93976 12.5452 -0.000239798 1.02412e-06 98.8588 -7.45075 -29.1976 12.8084 2.64571 0.192292 -10.0704 1.10203 42.8215 -6.15668 20.3552 -14.3935 1.34004 5.13216 -54.7943 14.6338 -25.3998 71.4438 16.6647 1.31049 -24.3732 -0.0194353 
3.83282 86.459 -107.654 1.61192 16.038 8.47437 -8.55068 10.4275 8.71536 -48.2582 -22.0515 6.08701 9.8473e-05 -1.05215e-05 -43.1324 -5.96977 35.459 27.4649 0.922962 -2.20621 -9.48213 11.3095 1.40861 11.4841 -0.000239791 9.75884e-07 98.4385 -5.97979 -27.8106 13.0202 -2.08023 -6.78026 -8.85446 0.941667 58.2823 5.37482 17.853 6.86736 7.45967 -1.89806 -51.1779 4.19105 -14.0153 69.9743 3.83769 -0.0440931 -25.4333 -1.22383 
4.35253 87.5346 -105.381 0.00513774 14.5109 10.3888 -6.00442 12.6673 5.89013 -52.2867 -13.8526 -11.2202 0.000191674 -1.11215e-05 -39.5206 -2.06291 31.8392 25.0227 2.01492 -3.09342 -8.68252 22.9069 6.50108 12.7267 -0.000239722 2.0404e-07 91.7582 -6.78734 -23.3476 9.32654 -4.8844 -14.8289 -3.33908 -6.84899 73.0193 16.0294 14.3713 25.6222 10.0997 -6.33631 -45.9686 -4.20346 -3.00196 67.8372 -7.05247 -3.1021 -28.6282 -5.23463 
4.72765 88.2163 -103.24 -1.13106 12.9752 12.1095 -3.79255 14.8609 2.91747 -54.3069 -2.94995 -25.8969 0.000320277 -1.12314e-05 -38.829 1.47922 26.4668 22.3342 3.23085 -4.05954 -7.96514 34.0219 11.5521 13.8775 -0.000239773 -8.47782e-07 82.6758 -7.61134 -17.2195 4.57884 -6.46616 -24.1016 4.8625 -57.5973 85.8458 64.7692 5.91081 28.8599 9.73122 -7.5898 -39.9012 -6.87949 3.2767 64.0677 -12.9728 -1.49739 -33.5468 -4.68827 
5.02914 88.9728 -100.946 -2.23098 11.3038 13.7388 -1.54752 16.7791 -0.0969975 -53.415 9.86697 -37.7801 0.0213548 -1.11049e-05 -39.624 4.12204 20.7388 20.2292 4.43393 -4.63226 -7.51178 44.7212 16.578 13.9871 -0.000239997 -1.90107e-06 73.3891 -7.81592 -9.80986 -0.152861 -8.63404 -31.2422 12.9803 -145.171 81.5422 152.181 -2.55802 30.8955 8.03457 -6.54302 -34.4971 -6.53281 5.08373 60.5255 -14.4346 2.32098 -35.5604 -2.75036 
5.26287 89.9227 -98.5871 -3.18117 9.46115 15.2183 0.543506 18.191 -2.97155 -48.6368 22.2969 -48.6485 -0.000303352 -1.0963e-05 -40.5003 5.95126 16.1784 19.143 5.54508 -4.32631 -7.48796 54.9963 21.2359 12.6314 -0.000240293 -2.70305e-06 66.0169 -7.3967 -1.73863 -4.11917 -10.534 -37.8292 17.2305 -148.123 78.4889 155.016 -4.72866 29.1943 1.26466 -4.17609 -29.4794 -4.95517 5.25466 57.1321 -14.3974 3.02631 -35.8414 -3.9291 
5.38713 91.4056 -96.1614 -3.85488 7.25932 16.4006 2.16207 18.4237 -5.17132 -38.1663 28.0758 -62.2106 -1.41621e-05 -1.09234e-05 -40.7423 7.06928 15.0132 20.0093 6.55271 -1.83416 -8.43168 64.1667 24.598 10.088 -0.000240391 -2.91333e-06 64.018 -7.48913 7.08733 -6.52255 -10.4165 -44.0353 14.2348 -139.293 80.653 146.861 -2.61462 23.5492 0.556734 -1.0107 -23.7661 -1.83731 5.34326 52.5407 -14.1974 1.10996 -34.3862 -7.7333 
5.93368 93.4442 -93.4699 -4.40597 5.66694 15.3062 3.44202 17.1404 -6.03066 -29.5663 25.7176 -69.6599 4.31562e-05 -8.84098e-06 -52.1775 5.18415 19.7041 20.2145 5.84342 1.41201 -8.2771 66.5906 30.2653 7.42631 -0.000240041 -2.0427e-06 72.1113 -5.03425 21.2333 -11.949 -10.3665 -48.2503 5.61743 -67.1373 84.576 75.769 1.16789 22.0381 -0.295384 0.600414 -17.9426 0.980509 4.7252 46.9679 -12.9032 1.58369 -30.2249 -4.85946 
6.66724 95.1048 -90.5362 -4.5502 5.02391 12.8696 4.30332 15.235 -6.26221 -25.2333 20.6081 -71.3791 -1.45537e-05 -5.14677e-06 -69.0849 1.00207 21.8417 19.6875 4.11659 3.58237 -6.95357 59.9502 38.4631 12.1168 -0.000239803 -1.0513e-06 80.904 0.792729 25.3122 -13.6163 -11.973 -49.8454 -6.05151 -9.22837 73.3369 10.1673 7.81253 19.2591 -1.62806 0.77919 -14.5294 4.20947 2.52094 44.5751 -4.28784 -2.96801 -26.0342 -0.569222 
7.40754 95.7134 -87.2779 -3.69637 5.30641 9.99337 4.21339 13.3479 -5.76618 -25.2485 14.2886 -71.393 6.70862e-05 2.33539e-05 -84.4109 -3.36883 20.733 18.5939 2.46668 4.13557 -5.45509 48.0889 43.3275 21.1907 -0.000239719 7.4835e-08 90.6448 1.10928 14.2109 -10.459 -15.7142 -48.2884 -18.4647 8.62234 56.277 -10.0503 6.94886 16.1224 -1.11021 1.08998 -13.6772 8.69144 -3.34077 45.4538 9.60032 -6.95222 -23.1213 -1.10428 
7.75595 95.5579 -83.7067 -1.83747 5.5059 9.06963 3.18306 12.5336 -5.7186 -28.1829 10.164 -75.4335 0.00219727 1.14931e-05 -90.0401 -5.46917 19.1277 13.6497 2.0264 4.4373 -5.21116 40.6644 40.4673 28.0561 -0.000239801 1.03932e-06 98.9914 -0.167276 8.79442 -8.85622 -15.7845 -44.7645 -23.8612 12.3877 38.5585 -15.4989 10.3776 12.825 -12.7172 -0.119371 -11.6166 10.658 -7.09908 43.3785 14.3618 -7.38702 -20.7412 0.602135 
7.63931 94.4657 -80.2746 0.0385845 5.85647 9.31657 1.89704 11.9537 -6.7196 -32.2098 8.35309 -80.0217 -0.000152687 -8.67832e-06 -91.3036 -10.0831 18.1137 12.7955 1.55001 4.26719 -4.56769 40.6408 33.4628 31.919 -0.000239885 1.47795e-06 102.841 -1.0836 9.68949 -6.48948 -13.2681 -42.1557 -21.9084 10.8196 22.6256 -13.7505 13.7211 11.05 -27.8824 -1.89787 -8.57686 10.7305 -7.92425 40.4619 14.8107 -5.44678 -20.8492 3.13908 
7.40854 92.5888 -76.7466 1.30399 5.96247 9.6567 1.32213 10.8237 -7.45673 -36.8405 8.00381 -84.1684 1.39519e-05 -8.25768e-06 -87.0587 -15.0307 22.5099 11.5706 0.923246 3.59514 -4.4733 43.7581 26.5161 37.2889 -0.000239833 1.22608e-06 100.624 -3.41688 10.3641 -2.97313 -10.3659 -40.1192 -15.936 8.06893 11.4084 -11.236 12.1804 15.8503 -34.1004 -3.50269 -5.51148 9.89159 -6.96396 40.3275 13.7711 -5.62354 -25.8611 3.81242 
7.40109 91.0024 -72.9124 1.64416 5.58816 11.2332 2.53609 10.3965 -9.65206 -41.312 9.32133 -84.6356 1.50105e-05 -2.01824e-05 -82.7955 -16.9231 29.2801 12.2744 -0.0625855 3.05102 -4.71547 48.5293 22.0896 43.5236 -0.000239728 3.54768e-07 93.0581 -5.53939 11.5866 1.73293 -8.61984 -39.3295 -13.5325 6.66982 11.6788 -10.7411 -0.932634 17.7975 -29.5163 -2.99079 -3.65833 9.02304 -6.4714 42.8888 11.4402 -6.9536 -25.5094 3.63462 
7.28885 90.3541 -69.2096 1.66317 5.65878 12.7941 3.89258 10.8236 -10.9715 -43.33 12.7122 -82.4481 1.72153e-05 -3.32643e-05 -78.071 -16.7591 31.7271 10.8635 -0.84365 0.81352 -5.3157 51.8096 20.5424 47.7331 -0.000239751 -6.47376e-07 84.4135 -7.36639 13.6974 5.98546 -10.2387 -43.5896 -14.8248 7.15388 24.6992 -11.832 -5.57703 9.77805 -28.5964 -1.22372 -5.29447 8.27247 -6.19339 48.3715 7.22358 -5.5494 -14.8159 3.6146 
6.86143 90.3733 -65.9756 0.503239 5.80234 10.0607 4.42247 12.7512 -8.53678 -46.2679 15.3478 -78.2265 2.61409e-05 -6.19484e-05 -67.3601 -19.8209 33.85 8.67288 -0.716258 -2.48719 -4.04978 52.2716 22.1895 51.4186 -0.000239916 -1.60797e-06 76.0074 -6.90338 12.9053 8.26499 -5.31744 -50.3117 -8.42217 2.94852 39.7683 -11.8156 1.37319 6.87516 -15.6034 0.977931 -9.54417 6.40351 -5.02659 56.6667 4.64072 -8.12913 -4.3455 3.14699 
6.51377 90.2807 -63.0259 -0.586108 5.05671 6.44107 4.08014 15.8592 -5.5415 -50.6732 16.1827 -74.2975 4.88443e-05 -0.000100332 -51.4318 -20.8757 38.4287 8.59714 -0.639507 -4.81888 -2.93509 49.877 25.0051 55.9318 -0.000240454 -3.03887e-06 62.8085 -1.69634 10.7553 7.53619 3.83288 -51.8117 2.23243 -1.06739 48.6409 -1.44365 6.62312 4.73654 -1.98482 3.56462 -21.6336 1.34033 1.03113 79.8312 -3.74251 -4.98289 6.27801 1.90378 
6.34282 89.7831 -59.6548 -0.369434 2.63602 3.18805 2.39374 20.3455 -3.52229 -53.7323 14.8913 -65.2002 6.9421e-05 -0.000121742 -40.8443 -8.10807 39.257 -0.154447 -0.983146 -6.83974 -1.61244 49.3341 28.4994 58.0891 -0.000241506 -4.53544e-06 46.999 10.749 10.5095 7.44477 8.64663 -47.9962 7.26347 -2.43961 52.8477 8.24678 5.1475 -0.101831 -0.111727 4.0859 -31.7082 -8.81043 168.646 77.3387 -171.404 -0.972009 13.905 0.181652 
6.63735 88.2336 -55.8866 0.644095 -0.839377 -0.14993 -0.177687 25.6631 -1.45975 -57.5055 11.6805 -50.7251 7.10424e-05 -0.000123126 -40.0855 5.99025 40.3383 -9.63353 -1.81386 -9.71004 -0.0363786 53.2105 31.2689 53.3332 -0.000242699 -5.54536e-06 33.5009 3.62969 -8.99576 1.06391 9.32493 -43.8324 6.59418 -2.66752 58.1643 8.50206 -1.20223 -7.10062 0.525076 1.60942 -36.8735 -27.9005 178.306 60.27 178.719 1.80936 16.169 -0.375892 
7.16998 86.6516 -51.4397 1.35385 -2.8052 -5.14212 -3.41047 28.3311 2.29277 -60.2913 7.71991 -36.2306 7.44703e-05 -0.000125931 -38.5085 14.9836 32.1243 -10.7252 -2.97996 -11.918 2.11579 59.7774 30.8919 38.3054 -0.000242807 -5.61554e-06 32.389 4.05637 -4.94441 0.591122 8.8336 -41.7108 4.74194 -1.92908 64.5179 8.99429 -7.27999 -13.476 1.18921 2.9448 -41.6663 -44.5174 -175.863 50.6411 166.157 7.48321 18.7676 -5.57272 
7.79392 85.3568 -46.2447 1.31193 -3.43333 -11.1148 -6.43468 27.3102 6.47359 -62.8154 1.1009 -20.0923 7.92902e-05 -0.00012962 -36.3475 10.4217 33.004 -16.0476 -4.20424 -12.3828 4.58878 61.2325 31.6488 25.0766 -0.000242795 -5.60784e-06 32.5127 -7.11199 2.43743 3.45469 7.33608 -40.6869 2.09761 0.165921 70.7291 8.97513 -11.1122 -17.3677 2.52003 7.72933 -47.5635 -46.3715 -174.362 48.3165 163.769 9.35504 15.2148 -12.8386 
7.60935 85.0585 -41.0016 0.645321 -5.78682 -12.7273 -6.90863 26.1433 7.06838 -62.0761 -2.63296 -3.92569 8.62795e-05 -0.000134483 -33.3156 0.228133 20.0169 -9.28884 -4.46838 -9.49778 5.77121 60.4448 30.281 11.9563 -0.000243001 -5.73409e-06 30.4292 -2.98878 -3.26279 -2.47589 4.92206 -35.7012 -1.33498 3.64535 73.889 4.31579 -12.3059 -19.8601 3.25182 11.3908 -53.2784 -29.7944 -177.515 54.1309 166.3 5.98843 12.7792 -6.17731 
6.94469 85.4781 -35.7448 -0.464217 -8.73006 -10.7216 -5.95779 24.6316 5.99322 -60.4519 -6.35459 10.5889 9.52786e-05 -0.000139984 -29.5597 2.25141 10.4268 -4.48207 -3.67089 -4.55505 5.08633 59.212 24.7084 -0.620898 -0.000243349 -5.92476e-06 27.0099 -1.42374 -3.68106 -5.19871 1.4479 -29.7019 -7.558 8.79084 75.6694 -0.586438 -10.4244 -16.0446 0.264282 10.7796 -55.4389 -11.6343 176.585 68.4438 178.7 0.135575 10.1885 -0.702208 
5.91721 86.0416 -30.033 -2.09808 -10.8006 -7.41449 -5.09238 20.9304 6.10007 -56.308 -13.6532 21.0498 9.92715e-05 -0.000142175 -27.9382 3.73298 -0.933361 -1.35735 -1.82232 0.784644 2.10119 56.381 17.6718 -12.5203 -0.000243588 -6.04069e-06 24.7201 -4.72705 -4.03945 -4.6998 -7.28216 -29.7617 -15.5489 16.34 80.8853 -13.4015 -0.114815 -3.4836 2.49624 11.4176 -53.1441 3.62776 99.8318 88.9123 -99.0392 -2.52676 6.62314 -1.55599 
4.55422 86.6252 -24.0536 -4.02864 -12.8986 -4.02137 -3.83972 17.241 7.17983 -45.8945 -19.9359 35.3094 7.41599e-05 -0.000125683 -38.6499 2.8017 -6.95221 -1.07558 0.625587 4.7518 -2.32088 50.4412 14.0519 -26.0269 -0.000242874 -5.6575e-06 31.7078 -4.62566 -1.4655 -6.35755 -15.6 -26.5226 -21.1927 10.5184 77.9874 -10.6536 9.06069 17.8514 1.85084 10.8094 -45.2989 12.5182 -9.32732 63.2049 8.33746 -1.19474 10.2812 -3.71545 
3.63435 86.5794 -18.9322 -5.80361 -15.5295 -1.68989 -3.11681 15.1229 8.08536 -33.2965 -18.3566 47.7685 5.36315e-05 -0.000106058 -48.7743 -1.41627 -8.21603 -3.60996 2.85354 7.27758 -6.25914 43.0691 15.2634 -38.4576 -0.000241859 -4.88691e-06 42.7044 2.55661 4.19615 -8.0134 -19.414 -20.9487 -22.7806 5.19486 71.4184 -2.87696 14.3961 33.5161 -2.71246 3.34006 -32.6493 11.1766 -9.04041 28.9548 9.06923 -3.89903 20.8419 1.63379 
